<svg version="1.0" xmlns="http://www.w3.org/2000/svg"
 width="240.000000pt" height="240.000000pt" viewBox="0 0 240.000000 240.000000"
 preserveAspectRatio="xMidYMid meet">
    
<g transform="translate(0.000000,240.000000) scale(0.100000,-0.100000)"
fill="#FFFFF" stroke="none">
<path d="M1951 2026 l-174 -174 -56 25 c-93 43 -201 80 -291 99 -106 23 -333
25 -435 5 -174 -34 -354 -112 -519 -224 -125 -84 -322 -283 -410 -414 l-68
-101 57 -89 c115 -176 294 -374 442 -485 l54 -41 -178 -179 -178 -178 35 -35
35 -35 965 965 965 965 -35 35 -35 35 -174 -174z m-536 -150 c82 -18 195 -55
248 -82 l37 -19 -93 -93 -93 -93 -60 36 c-200 121 -437 91 -604 -75 -169 -169
-197 -413 -69 -615 l31 -48 -94 -94 -93 -93 -80 63 c-107 85 -253 239 -348
365 -42 57 -77 107 -77 112 0 18 113 158 197 243 226 229 460 360 718 403 96
16 281 11 380 -10z m-117 -290 c29 -8 73 -26 98 -41 l47 -27 -279 -279 c-313
-313 -282 -295 -333 -189 -22 48 -26 68 -26 150 0 86 3 101 32 162 84 179 278
272 461 224z"/>
<path d="M1918 1703 l-36 -35 87 -72 c108 -91 311 -323 311 -357 0 -21 -109
-175 -199 -281 -96 -111 -155 -166 -278 -254 -287 -206 -631 -257 -930 -138
l-65 26 -34 -33 c-19 -18 -34 -36 -34 -40 0 -11 151 -68 238 -90 492 -126
1068 186 1387 750 l36 65 -67 100 c-66 98 -276 322 -350 374 l-30 21 -36 -36z"/>
<path d="M1601 1386 c-31 -32 -32 -37 -23 -68 45 -140 7 -292 -98 -398 -98
-97 -230 -136 -362 -108 l-73 16 -32 -31 c-18 -17 -33 -34 -33 -38 0 -16 119
-51 190 -56 305 -22 573 269 522 567 -12 71 -39 150 -51 150 -4 0 -22 -15 -40
-34z"/>
</g>
</svg>
