<svg width="74" height="83" viewBox="0 0 74 83" fill="none" xmlns="http://www.w3.org/2000/svg">
<path d="M50.9997 13.19C50.9994 16.1402 50.1665 18.9706 48.6827 21.0642C45.2667 25.8887 41.9522 30.9191 38.4067 35.5671C38.0109 36.0722 37.4917 36.3452 36.9563 36.3297C36.421 36.3142 35.9103 36.0114 35.5297 35.4837L25.3167 21.0691C23.8321 18.9741 22.999 16.1419 22.999 13.19C22.999 10.2381 23.8321 7.40593 25.3167 5.31099C26.0575 4.2656 26.9387 3.43589 27.9094 2.8697C28.8801 2.3035 29.9212 2.01201 30.9727 2.01201C32.0242 2.01201 33.0653 2.3035 34.0361 2.8697C35.0068 3.43589 35.8879 4.2656 36.6287 5.31099L36.9997 5.83561L37.3707 5.31099C38.4827 3.73648 39.9039 2.6611 41.4536 2.22176C43.0032 1.78242 44.6111 1.99898 46.0726 2.84388C47.5341 3.68878 48.7831 5.1238 49.6605 6.96625C50.5379 8.80869 51.0041 10.9752 50.9997 13.19Z" stroke="#0F4AD2" stroke-width="4" stroke-linejoin="round"/>
<path d="M58 80.4583L71.384 61.7094C71.7779 61.1583 71.9995 60.4105 72 59.6306V33.8803C72 31.9298 71.4469 30.0592 70.4623 28.6799C69.4777 27.3007 68.1424 26.5259 66.75 26.5259C65.3576 26.5259 64.0223 27.3007 63.0377 28.6799C62.0531 30.0592 61.5 31.9298 61.5 33.8803V55.9436" stroke="#0F4AD2" stroke-width="4" stroke-linecap="round" stroke-linejoin="round"/>
<path d="M58 60.8465L61.003 56.6398C61.1608 56.4191 61.2859 56.1569 61.3712 55.8683C61.4565 55.5797 61.5002 55.2704 61.5 54.9581C61.4995 54.5172 61.4115 54.0852 61.2459 53.7103C61.0803 53.3354 60.8435 53.0324 60.562 52.8351L59.0115 51.7515C57.6979 50.8315 56.211 50.5135 54.7613 50.8426C53.3116 51.1717 51.9725 52.1312 50.9335 53.5852L47.801 57.9734C46.4882 59.8119 45.7504 62.3057 45.75 64.9061V80.4583M16 80.4583L2.616 61.7094C2.22206 61.1583 2.00049 60.4105 2 59.6306V33.8803C2 31.9298 2.55312 30.0592 3.53769 28.6799C4.52226 27.3007 5.85761 26.5259 7.25 26.5259C8.64239 26.5259 9.97775 27.3007 10.9623 28.6799C11.9469 30.0592 12.5 31.9298 12.5 33.8803V55.9436" stroke="#0F4AD2" stroke-width="4" stroke-linecap="round" stroke-linejoin="round"/>
<path d="M16 60.8465L12.997 56.6398C12.8394 56.4189 12.7144 56.1567 12.6291 55.8682C12.5438 55.5796 12.5 55.2704 12.5 54.9581C12.5 54.0608 12.864 53.242 13.438 52.8351L14.9885 51.7516C16.3021 50.8315 17.789 50.5135 19.2387 50.8426C20.6884 51.1717 22.0275 52.1312 23.0665 53.5853L26.199 57.9734C27.5118 59.8119 28.2496 62.3057 28.25 64.9062V80.4583" stroke="#0F4AD2" stroke-width="4" stroke-linecap="round" stroke-linejoin="round"/>
</svg>
