<svg width="25" height="25" viewBox="0 0 25 25" fill="none" xmlns="http://www.w3.org/2000/svg">
<path d="M21.7091 4.80203C21.1771 4.26974 20.5454 3.8475 19.8501 3.55941C19.1548 3.27133 18.4096 3.12305 17.657 3.12305C16.9044 3.12305 16.1592 3.27133 15.4639 3.55941C14.7687 3.8475 14.137 4.26974 13.6049 4.80203L12.5008 5.9062L11.3966 4.80203C10.3219 3.72735 8.86435 3.1236 7.34453 3.1236C5.8247 3.1236 4.36712 3.72735 3.29244 4.80203C2.21776 5.87671 1.61401 7.33429 1.61401 8.85411C1.61401 10.3739 2.21776 11.8315 3.29244 12.9062L4.39661 14.0104L12.5008 22.1145L20.6049 14.0104L21.7091 12.9062C22.2414 12.3742 22.6636 11.7425 22.9517 11.0472C23.2398 10.3519 23.3881 9.60671 23.3881 8.85411C23.3881 8.10152 23.2398 7.35631 22.9517 6.66104C22.6636 5.96577 22.2414 5.33407 21.7091 4.80203V4.80203Z" stroke="#0F4AD2" stroke-width="2" stroke-linecap="round" stroke-linejoin="round"/>
</svg>
