<svg width="70" height="70" viewBox="0 0 70 70" fill="none" xmlns="http://www.w3.org/2000/svg">
<path d="M49.5815 61.25V55.4167C49.5815 52.3225 48.3523 49.355 46.1644 47.1671C43.9765 44.9792 41.009 43.75 37.9148 43.75H14.5815C11.4873 43.75 8.51981 44.9792 6.33188 47.1671C4.14396 49.355 2.91479 52.3225 2.91479 55.4167V61.25" stroke="#0F4AD2" stroke-width="3.5" stroke-linecap="round" stroke-linejoin="round"/>
<path d="M26.2519 32.0833C32.6952 32.0833 37.9185 26.86 37.9185 20.4167C37.9185 13.9733 32.6952 8.75 26.2519 8.75C19.8085 8.75 14.5852 13.9733 14.5852 20.4167C14.5852 26.86 19.8085 32.0833 26.2519 32.0833Z" stroke="#0F4AD2" stroke-width="3.5" stroke-linecap="round" stroke-linejoin="round"/>
<path d="M67.0852 61.2493V55.4159C67.0833 52.831 66.2229 50.3198 64.6392 48.2768C63.0555 46.2338 60.8381 44.7747 58.3352 44.1284" stroke="#0F4AD2" stroke-width="3.5" stroke-linecap="round" stroke-linejoin="round"/>
<path d="M46.6648 9.12793C49.1743 9.77047 51.3987 11.23 52.9871 13.2763C54.5755 15.3227 55.4377 17.8395 55.4377 20.43C55.4377 23.0205 54.5755 25.5373 52.9871 27.5837C51.3987 29.63 49.1743 31.0896 46.6648 31.7321" stroke="#0F4AD2" stroke-width="3.5" stroke-linecap="round" stroke-linejoin="round"/>
</svg>
